<mxfile host="app.diagrams.net" modified="2020-11-21T15:42:12.559Z" agent="5.0 (Windows NT 10.0; Win64; x64) AppleWebKit/537.36 (KHTML, like Gecko) Chrome/86.0.4240.198 Safari/537.36" etag="SDUZe5RW_GT5_erjoVWw" version="13.10.0" type="github">
  <diagram id="9OlRN7YWqP3GaA16J-kA" name="Page-1">
    <mxGraphModel dx="1038" dy="491" grid="1" gridSize="10" guides="1" tooltips="1" connect="1" arrows="1" fold="1" page="1" pageScale="1" pageWidth="850" pageHeight="1100" math="0" shadow="0">
      <root>
        <mxCell id="0" />
        <mxCell id="1" parent="0" />
        <mxCell id="z9p9MfoPdnVYApyIsOZ6-1" value="" style="edgeStyle=orthogonalEdgeStyle;rounded=0;orthogonalLoop=1;jettySize=auto;html=1;" edge="1" parent="1" source="z9p9MfoPdnVYApyIsOZ6-2" target="z9p9MfoPdnVYApyIsOZ6-4">
          <mxGeometry relative="1" as="geometry" />
        </mxCell>
        <mxCell id="z9p9MfoPdnVYApyIsOZ6-2" value="" style="ellipse;whiteSpace=wrap;html=1;aspect=fixed;fillColor=#000000;" vertex="1" parent="1">
          <mxGeometry x="220" y="40" width="40" height="40" as="geometry" />
        </mxCell>
        <mxCell id="z9p9MfoPdnVYApyIsOZ6-3" value="" style="edgeStyle=orthogonalEdgeStyle;rounded=0;orthogonalLoop=1;jettySize=auto;html=1;entryX=0.5;entryY=0;entryDx=0;entryDy=0;" edge="1" parent="1" source="z9p9MfoPdnVYApyIsOZ6-4" target="z9p9MfoPdnVYApyIsOZ6-23">
          <mxGeometry relative="1" as="geometry" />
        </mxCell>
        <mxCell id="z9p9MfoPdnVYApyIsOZ6-4" value="Select an open order to cancel" style="rounded=1;whiteSpace=wrap;html=1;fillColor=#FFFFFF;" vertex="1" parent="1">
          <mxGeometry x="140" y="110" width="200" height="30" as="geometry" />
        </mxCell>
        <mxCell id="z9p9MfoPdnVYApyIsOZ6-5" value="No" style="edgeStyle=orthogonalEdgeStyle;rounded=0;orthogonalLoop=1;jettySize=auto;html=1;" edge="1" parent="1" source="z9p9MfoPdnVYApyIsOZ6-6" target="z9p9MfoPdnVYApyIsOZ6-10">
          <mxGeometry relative="1" as="geometry" />
        </mxCell>
        <mxCell id="z9p9MfoPdnVYApyIsOZ6-6" value="Valid?" style="rhombus;whiteSpace=wrap;html=1;fillColor=#FFFFFF;" vertex="1" parent="1">
          <mxGeometry x="210" y="250" width="60" height="60" as="geometry" />
        </mxCell>
        <mxCell id="z9p9MfoPdnVYApyIsOZ6-7" value="" style="edgeStyle=orthogonalEdgeStyle;rounded=0;orthogonalLoop=1;jettySize=auto;html=1;entryX=1;entryY=0.5;entryDx=0;entryDy=0;exitX=0.5;exitY=1;exitDx=0;exitDy=0;" edge="1" parent="1" source="z9p9MfoPdnVYApyIsOZ6-12" target="z9p9MfoPdnVYApyIsOZ6-8">
          <mxGeometry relative="1" as="geometry">
            <mxPoint x="580" y="570" as="targetPoint" />
          </mxGeometry>
        </mxCell>
        <mxCell id="z9p9MfoPdnVYApyIsOZ6-8" value="" style="ellipse;html=1;shape=endState;fillColor=#000000;strokeColor=#ff0000;" vertex="1" parent="1">
          <mxGeometry x="365" y="710" width="30" height="30" as="geometry" />
        </mxCell>
        <mxCell id="z9p9MfoPdnVYApyIsOZ6-9" style="edgeStyle=orthogonalEdgeStyle;rounded=0;orthogonalLoop=1;jettySize=auto;html=1;entryX=0;entryY=0.5;entryDx=0;entryDy=0;exitX=0.5;exitY=1;exitDx=0;exitDy=0;" edge="1" parent="1" source="z9p9MfoPdnVYApyIsOZ6-10" target="z9p9MfoPdnVYApyIsOZ6-8">
          <mxGeometry relative="1" as="geometry">
            <Array as="points">
              <mxPoint x="110" y="725" />
            </Array>
          </mxGeometry>
        </mxCell>
        <mxCell id="z9p9MfoPdnVYApyIsOZ6-10" value="Error" style="rounded=1;whiteSpace=wrap;html=1;fillColor=#FFFFFF;" vertex="1" parent="1">
          <mxGeometry x="60" y="380" width="100" height="30" as="geometry" />
        </mxCell>
        <mxCell id="z9p9MfoPdnVYApyIsOZ6-11" value="Yes" style="edgeStyle=orthogonalEdgeStyle;rounded=0;orthogonalLoop=1;jettySize=auto;html=1;entryX=0;entryY=0.5;entryDx=0;entryDy=0;endArrow=classic;endFill=1;exitX=1;exitY=0.5;exitDx=0;exitDy=0;" edge="1" parent="1" source="z9p9MfoPdnVYApyIsOZ6-6" target="z9p9MfoPdnVYApyIsOZ6-27">
          <mxGeometry relative="1" as="geometry">
            <mxPoint x="340" y="280" as="targetPoint" />
          </mxGeometry>
        </mxCell>
        <mxCell id="z9p9MfoPdnVYApyIsOZ6-12" value="Release equity and margin" style="rounded=1;whiteSpace=wrap;html=1;fillColor=#FFFFFF;" vertex="1" parent="1">
          <mxGeometry x="480" y="620" width="200" height="30" as="geometry" />
        </mxCell>
        <mxCell id="z9p9MfoPdnVYApyIsOZ6-13" value="" style="edgeStyle=orthogonalEdgeStyle;rounded=0;orthogonalLoop=1;jettySize=auto;html=1;entryX=0.5;entryY=0;entryDx=0;entryDy=0;" edge="1" parent="1" source="z9p9MfoPdnVYApyIsOZ6-14" target="z9p9MfoPdnVYApyIsOZ6-16">
          <mxGeometry relative="1" as="geometry">
            <mxPoint x="580" y="330" as="targetPoint" />
          </mxGeometry>
        </mxCell>
        <mxCell id="z9p9MfoPdnVYApyIsOZ6-14" value="Submit cancelation to broker" style="rounded=1;whiteSpace=wrap;html=1;fillColor=#FFFFFF;" vertex="1" parent="1">
          <mxGeometry x="480" y="265" width="200" height="30" as="geometry" />
        </mxCell>
        <mxCell id="z9p9MfoPdnVYApyIsOZ6-15" style="edgeStyle=orthogonalEdgeStyle;rounded=0;orthogonalLoop=1;jettySize=auto;html=1;entryX=0.5;entryY=0;entryDx=0;entryDy=0;" edge="1" parent="1" source="z9p9MfoPdnVYApyIsOZ6-16" target="z9p9MfoPdnVYApyIsOZ6-19">
          <mxGeometry relative="1" as="geometry" />
        </mxCell>
        <mxCell id="z9p9MfoPdnVYApyIsOZ6-16" value="Submit order to exchange" style="rounded=1;whiteSpace=wrap;html=1;fillColor=#FFFFFF;" vertex="1" parent="1">
          <mxGeometry x="480" y="380" width="200" height="30" as="geometry" />
        </mxCell>
        <mxCell id="z9p9MfoPdnVYApyIsOZ6-17" value="Yes" style="edgeStyle=orthogonalEdgeStyle;rounded=0;orthogonalLoop=1;jettySize=auto;html=1;entryX=0.5;entryY=0;entryDx=0;entryDy=0;" edge="1" parent="1" source="z9p9MfoPdnVYApyIsOZ6-19" target="z9p9MfoPdnVYApyIsOZ6-12">
          <mxGeometry relative="1" as="geometry" />
        </mxCell>
        <mxCell id="z9p9MfoPdnVYApyIsOZ6-18" value="No" style="edgeStyle=orthogonalEdgeStyle;rounded=0;orthogonalLoop=1;jettySize=auto;html=1;entryX=0;entryY=0.5;entryDx=0;entryDy=0;" edge="1" parent="1" source="z9p9MfoPdnVYApyIsOZ6-19" target="z9p9MfoPdnVYApyIsOZ6-21">
          <mxGeometry relative="1" as="geometry" />
        </mxCell>
        <mxCell id="z9p9MfoPdnVYApyIsOZ6-19" value="&lt;span&gt;Cancelation Successful?&lt;/span&gt;" style="rhombus;whiteSpace=wrap;html=1;" vertex="1" parent="1">
          <mxGeometry x="535" y="470" width="90" height="90" as="geometry" />
        </mxCell>
        <mxCell id="z9p9MfoPdnVYApyIsOZ6-20" style="edgeStyle=orthogonalEdgeStyle;rounded=0;orthogonalLoop=1;jettySize=auto;html=1;entryX=0.5;entryY=1;entryDx=0;entryDy=0;exitX=0.5;exitY=1;exitDx=0;exitDy=0;" edge="1" parent="1" source="z9p9MfoPdnVYApyIsOZ6-21" target="z9p9MfoPdnVYApyIsOZ6-8">
          <mxGeometry relative="1" as="geometry" />
        </mxCell>
        <mxCell id="z9p9MfoPdnVYApyIsOZ6-21" value="Error" style="rounded=1;whiteSpace=wrap;html=1;fillColor=#FFFFFF;" vertex="1" parent="1">
          <mxGeometry x="680" y="500" width="100" height="30" as="geometry" />
        </mxCell>
        <mxCell id="z9p9MfoPdnVYApyIsOZ6-22" style="edgeStyle=orthogonalEdgeStyle;rounded=0;orthogonalLoop=1;jettySize=auto;html=1;entryX=0.5;entryY=0;entryDx=0;entryDy=0;exitX=0.5;exitY=1;exitDx=0;exitDy=0;" edge="1" parent="1" source="z9p9MfoPdnVYApyIsOZ6-23" target="z9p9MfoPdnVYApyIsOZ6-6">
          <mxGeometry relative="1" as="geometry">
            <Array as="points" />
          </mxGeometry>
        </mxCell>
        <mxCell id="z9p9MfoPdnVYApyIsOZ6-23" value="Determine trade financial impact" style="rounded=1;whiteSpace=wrap;html=1;fillColor=#FFFFFF;" vertex="1" parent="1">
          <mxGeometry x="140" y="170" width="200" height="30" as="geometry" />
        </mxCell>
        <mxCell id="z9p9MfoPdnVYApyIsOZ6-24" value="Change" style="edgeStyle=orthogonalEdgeStyle;rounded=0;orthogonalLoop=1;jettySize=auto;html=1;exitX=0.5;exitY=0;exitDx=0;exitDy=0;" edge="1" parent="1" source="z9p9MfoPdnVYApyIsOZ6-27">
          <mxGeometry relative="1" as="geometry">
            <mxPoint x="340" y="185" as="targetPoint" />
            <Array as="points">
              <mxPoint x="380" y="185" />
              <mxPoint x="340" y="185" />
            </Array>
          </mxGeometry>
        </mxCell>
        <mxCell id="z9p9MfoPdnVYApyIsOZ6-25" value="Confirm" style="edgeStyle=orthogonalEdgeStyle;rounded=0;orthogonalLoop=1;jettySize=auto;html=1;entryX=0;entryY=0.5;entryDx=0;entryDy=0;" edge="1" parent="1" source="z9p9MfoPdnVYApyIsOZ6-27" target="z9p9MfoPdnVYApyIsOZ6-14">
          <mxGeometry relative="1" as="geometry" />
        </mxCell>
        <mxCell id="z9p9MfoPdnVYApyIsOZ6-26" value="Cancel" style="edgeStyle=orthogonalEdgeStyle;rounded=0;orthogonalLoop=1;jettySize=auto;html=1;entryX=0.5;entryY=0;entryDx=0;entryDy=0;" edge="1" parent="1" source="z9p9MfoPdnVYApyIsOZ6-27" target="z9p9MfoPdnVYApyIsOZ6-8">
          <mxGeometry relative="1" as="geometry" />
        </mxCell>
        <mxCell id="z9p9MfoPdnVYApyIsOZ6-27" value="" style="rounded=1;whiteSpace=wrap;html=1;fillColor=#000000;" vertex="1" parent="1">
          <mxGeometry x="370" y="230" width="20" height="100" as="geometry" />
        </mxCell>
      </root>
    </mxGraphModel>
  </diagram>
</mxfile>
